<svg width="202" height="25" viewBox="0 0 202 25" fill="none" xmlns="http://www.w3.org/2000/svg">
<path d="M9.516 24.884C7.724 24.884 6.00667 24.6493 4.364 24.18C2.72133 23.6893 1.39867 23.06 0.396 22.292L2.156 18.388C3.116 19.0707 4.24667 19.636 5.548 20.084C6.87067 20.5107 8.204 20.724 9.548 20.724C10.572 20.724 11.3933 20.628 12.012 20.436C12.652 20.2227 13.1213 19.9347 13.42 19.572C13.7187 19.2093 13.868 18.7933 13.868 18.324C13.868 17.7267 13.6333 17.2573 13.164 16.916C12.6947 16.5533 12.076 16.2653 11.308 16.052C10.54 15.8173 9.68667 15.604 8.748 15.412C7.83067 15.1987 6.90267 14.9427 5.964 14.644C5.04667 14.3453 4.204 13.9613 3.436 13.492C2.668 13.0227 2.03867 12.404 1.548 11.636C1.07867 10.868 0.844 9.88667 0.844 8.692C0.844 7.412 1.18533 6.24933 1.868 5.204C2.572 4.13733 3.61733 3.29467 5.004 2.676C6.412 2.036 8.172 1.716 10.284 1.716C11.692 1.716 13.0787 1.88667 14.444 2.228C15.8093 2.548 17.0147 3.03867 18.06 3.7L16.46 7.636C15.4147 7.03867 14.3693 6.60133 13.324 6.324C12.2787 6.02533 11.2547 5.876 10.252 5.876C9.24933 5.876 8.428 5.99333 7.788 6.228C7.148 6.46267 6.68933 6.772 6.412 7.156C6.13467 7.51867 5.996 7.94533 5.996 8.436C5.996 9.012 6.23067 9.48133 6.7 9.844C7.16933 10.1853 7.788 10.4627 8.556 10.676C9.324 10.8893 10.1667 11.1027 11.084 11.316C12.0227 11.5293 12.9507 11.7747 13.868 12.052C14.8067 12.3293 15.66 12.7027 16.428 13.172C17.196 13.6413 17.8147 14.26 18.284 15.028C18.7747 15.796 19.02 16.7667 19.02 17.94C19.02 19.1987 18.668 20.3507 17.964 21.396C17.26 22.4413 16.204 23.284 14.796 23.924C13.4093 24.564 11.6493 24.884 9.516 24.884ZM29.2503 24.756C27.2236 24.756 25.6449 24.244 24.5143 23.22C23.3836 22.1747 22.8183 20.628 22.8183 18.58V3.476H27.8103V18.516C27.8103 19.2413 28.0023 19.8067 28.3863 20.212C28.7703 20.596 29.2929 20.788 29.9543 20.788C30.7436 20.788 31.4156 20.5747 31.9703 20.148L33.3143 23.668C32.8023 24.0307 32.1836 24.308 31.4583 24.5C30.7543 24.6707 30.0183 24.756 29.2503 24.756ZM20.1623 11.508V7.668H32.0983V11.508H20.1623ZM43.3805 24.756C41.9512 24.756 40.6712 24.4787 39.5405 23.924C38.4312 23.3693 37.5672 22.5267 36.9485 21.396C36.3298 20.244 36.0205 18.7827 36.0205 17.012V7.284H41.0125V16.276C41.0125 17.7053 41.3112 18.7613 41.9085 19.444C42.5272 20.1053 43.3912 20.436 44.5005 20.436C45.2685 20.436 45.9512 20.276 46.5485 19.956C47.1458 19.6147 47.6152 19.1027 47.9565 18.42C48.2978 17.716 48.4685 16.8413 48.4685 15.796V7.284H53.4605V24.5H48.7245V19.764L49.5885 21.14C49.0125 22.3347 48.1592 23.2413 47.0285 23.86C45.9192 24.4573 44.7032 24.756 43.3805 24.756ZM65.4773 24.756C63.8559 24.756 62.3946 24.3933 61.0933 23.668C59.7919 22.9213 58.7573 21.8867 57.9893 20.564C57.2426 19.2413 56.8693 17.684 56.8693 15.892C56.8693 14.0787 57.2426 12.5107 57.9893 11.188C58.7573 9.86533 59.7919 8.84133 61.0933 8.116C62.3946 7.39067 63.8559 7.028 65.4773 7.028C66.9279 7.028 68.1973 7.348 69.2853 7.988C70.3733 8.628 71.2159 9.59867 71.8133 10.9C72.4106 12.2013 72.7093 13.8653 72.7093 15.892C72.7093 17.8973 72.4213 19.5613 71.8453 20.884C71.2693 22.1853 70.4373 23.156 69.3493 23.796C68.2826 24.436 66.9919 24.756 65.4773 24.756ZM66.3413 20.66C67.1519 20.66 67.8879 20.468 68.5493 20.084C69.2106 19.7 69.7333 19.156 70.1173 18.452C70.5226 17.7267 70.7253 16.8733 70.7253 15.892C70.7253 14.8893 70.5226 14.036 70.1173 13.332C69.7333 12.628 69.2106 12.084 68.5493 11.7C67.8879 11.316 67.1519 11.124 66.3413 11.124C65.5093 11.124 64.7626 11.316 64.1013 11.7C63.4399 12.084 62.9066 12.628 62.5013 13.332C62.1173 14.036 61.9253 14.8893 61.9253 15.892C61.9253 16.8733 62.1173 17.7267 62.5013 18.452C62.9066 19.156 63.4399 19.7 64.1013 20.084C64.7626 20.468 65.5093 20.66 66.3413 20.66ZM70.8533 24.5V20.98L70.9493 15.86L70.6293 10.772V0.755999H75.6213V24.5H70.8533ZM88.7855 24.756C86.8228 24.756 85.0948 24.372 83.6015 23.604C82.1295 22.836 80.9882 21.7907 80.1775 20.468C79.3668 19.124 78.9615 17.5987 78.9615 15.892C78.9615 14.164 79.3562 12.6387 80.1455 11.316C80.9562 9.972 82.0548 8.92667 83.4415 8.18C84.8282 7.412 86.3962 7.028 88.1455 7.028C89.8308 7.028 91.3455 7.39067 92.6895 8.116C94.0548 8.82 95.1322 9.844 95.9215 11.188C96.7108 12.5107 97.1055 14.1 97.1055 15.956C97.1055 16.148 97.0948 16.372 97.0735 16.628C97.0522 16.8627 97.0308 17.0867 97.0095 17.3H83.0255V14.388H94.3855L92.4655 15.252C92.4655 14.356 92.2842 13.5773 91.9215 12.916C91.5588 12.2547 91.0575 11.7427 90.4175 11.38C89.7775 10.996 89.0308 10.804 88.1775 10.804C87.3242 10.804 86.5668 10.996 85.9055 11.38C85.2655 11.7427 84.7642 12.2653 84.4015 12.948C84.0388 13.6093 83.8575 14.3987 83.8575 15.316V16.084C83.8575 17.0227 84.0602 17.8547 84.4655 18.58C84.8922 19.284 85.4788 19.828 86.2255 20.212C86.9935 20.5747 87.8895 20.756 88.9135 20.756C89.8308 20.756 90.6308 20.6173 91.3135 20.34C92.0175 20.0627 92.6575 19.6467 93.2335 19.092L95.8895 21.972C95.1002 22.868 94.1082 23.5613 92.9135 24.052C91.7188 24.5213 90.3428 24.756 88.7855 24.756ZM110.893 7.028C112.258 7.028 113.474 7.30533 114.541 7.86C115.629 8.39333 116.482 9.22533 117.101 10.356C117.72 11.4653 118.029 12.8947 118.029 14.644V24.5H113.037V15.412C113.037 14.0253 112.728 13.0013 112.109 12.34C111.512 11.6787 110.658 11.348 109.549 11.348C108.76 11.348 108.045 11.5187 107.405 11.86C106.786 12.18 106.296 12.6813 105.933 13.364C105.592 14.0467 105.421 14.9213 105.421 15.988V24.5H100.429V7.284H105.197V12.052L104.301 10.612C104.92 9.46 105.805 8.57467 106.957 7.956C108.109 7.33733 109.421 7.028 110.893 7.028ZM129.594 24.756C127.567 24.756 125.989 24.244 124.858 23.22C123.727 22.1747 123.162 20.628 123.162 18.58V3.476H128.154V18.516C128.154 19.2413 128.346 19.8067 128.73 20.212C129.114 20.596 129.637 20.788 130.298 20.788C131.087 20.788 131.759 20.5747 132.314 20.148L133.658 23.668C133.146 24.0307 132.527 24.308 131.802 24.5C131.098 24.6707 130.362 24.756 129.594 24.756ZM120.506 11.508V7.668H132.442V11.508H120.506ZM154.188 2.1H156.524V24.5H154.188V2.1ZM140.172 24.5H137.804V2.1H140.172V24.5ZM154.412 14.164H139.916V12.084H154.412V14.164ZM170.3 24.66C168.87 24.66 167.622 24.3933 166.556 23.86C165.489 23.3267 164.657 22.5267 164.06 21.46C163.484 20.3933 163.196 19.06 163.196 17.46V7.7H165.468V17.204C165.468 18.996 165.905 20.3507 166.78 21.268C167.676 22.164 168.924 22.612 170.524 22.612C171.697 22.612 172.71 22.3773 173.564 21.908C174.438 21.4173 175.1 20.7133 175.548 19.796C176.017 18.8787 176.252 17.78 176.252 16.5V7.7H178.524V24.5H176.347V19.892L176.7 20.724C176.166 21.9613 175.334 22.932 174.204 23.636C173.094 24.3187 171.793 24.66 170.3 24.66ZM193.528 24.66C192.056 24.66 190.733 24.3293 189.56 23.668C188.386 22.9853 187.458 22.004 186.776 20.724C186.093 19.444 185.752 17.8973 185.752 16.084C185.752 14.2493 186.093 12.7027 186.776 11.444C187.48 10.164 188.418 9.19333 189.592 8.532C190.765 7.87067 192.077 7.54 193.528 7.54C195.128 7.54 196.557 7.90267 197.816 8.628C199.096 9.332 200.098 10.324 200.824 11.604C201.549 12.884 201.912 14.3773 201.912 16.084C201.912 17.7693 201.549 19.2627 200.824 20.564C200.098 21.844 199.096 22.8467 197.816 23.572C196.557 24.2973 195.128 24.66 193.528 24.66ZM184.856 24.5V0.755999H187.128V12.66L186.808 16.052L187.032 19.444V24.5H184.856ZM193.368 22.644C194.562 22.644 195.629 22.3773 196.568 21.844C197.506 21.2893 198.253 20.5213 198.808 19.54C199.362 18.5373 199.64 17.3853 199.64 16.084C199.64 14.7613 199.362 13.6093 198.808 12.628C198.253 11.6467 197.506 10.8893 196.568 10.356C195.629 9.80133 194.562 9.524 193.368 9.524C192.173 9.524 191.096 9.80133 190.135 10.356C189.197 10.8893 188.45 11.6467 187.896 12.628C187.362 13.6093 187.096 14.7613 187.096 16.084C187.096 17.3853 187.362 18.5373 187.896 19.54C188.45 20.5213 189.197 21.2893 190.135 21.844C191.096 22.3773 192.173 22.644 193.368 22.644Z" fill="#007CEE"/>
</svg>
