<svg width="256" height="256" viewBox="0 0 256 256" fill="none" xmlns="http://www.w3.org/2000/svg">
<path fill-rule="evenodd" clip-rule="evenodd" d="M24 128C24 70.5817 70.5817 24 128 24C185.418 24 232 70.5817 232 128C232 185.418 185.418 232 128 232C70.5817 232 24 185.418 24 128ZM128 40C79.4183 40 40 79.4183 40 128C40 176.582 79.4183 216 128 216C176.582 216 216 176.582 216 128C216 79.4183 176.582 40 128 40Z" fill="white"/>
<path fill-rule="evenodd" clip-rule="evenodd" d="M128 80C132.418 80 136 83.5817 136 88V120H168C172.418 120 176 123.582 176 128C176 132.418 172.418 136 168 136H136V168C136 172.418 132.418 176 128 176C123.582 176 120 172.418 120 168V136H88C83.5817 136 80 132.418 80 128C80 123.582 83.5817 120 88 120H120V88C120 83.5817 123.582 80 128 80Z" fill="white"/>
</svg>
