<svg width="44" height="44" viewBox="0 0 44 44" fill="none" xmlns="http://www.w3.org/2000/svg">
<path d="M24.9174 21.9999L33.0814 13.8359C33.4689 13.4491 33.6868 12.9242 33.6873 12.3767C33.6878 11.8293 33.4708 11.304 33.084 10.9166C32.6972 10.5291 32.1724 10.3111 31.6249 10.3107C31.0774 10.3102 30.5522 10.5272 30.1647 10.914L22.0006 19.078L13.8366 10.914C13.4491 10.5265 12.9236 10.3088 12.3756 10.3088C11.8277 10.3088 11.3022 10.5265 10.9147 10.914C10.5272 11.3014 10.3096 11.827 10.3096 12.3749C10.3096 12.9229 10.5272 13.4484 10.9147 13.8359L19.0788 21.9999L10.9147 30.164C10.5272 30.5514 10.3096 31.077 10.3096 31.6249C10.3096 32.1729 10.5272 32.6984 10.9147 33.0859C11.3022 33.4733 11.8277 33.691 12.3756 33.691C12.9236 33.691 13.4491 33.4733 13.8366 33.0859L22.0006 24.9218L30.1647 33.0859C30.5522 33.4733 31.0777 33.691 31.6256 33.691C32.1736 33.691 32.6991 33.4733 33.0866 33.0859C33.4741 32.6984 33.6917 32.1729 33.6917 31.6249C33.6917 31.077 33.4741 30.5514 33.0866 30.164L24.9174 21.9999Z" fill="white"/>
</svg>
