<svg width="36" height="36" viewBox="0 0 36 36" fill="none" xmlns="http://www.w3.org/2000/svg">
<path d="M20.7443 18L28.4258 10.3185C28.7903 9.95461 28.9954 9.46078 28.9959 8.94566C28.9963 8.43055 28.7921 7.93636 28.4282 7.5718C28.0643 7.20723 27.5705 7.00217 27.0553 7.00172C26.5402 7.00126 26.046 7.20545 25.6815 7.56937L18 15.2508L10.3185 7.56937C9.95397 7.20481 9.45952 7 8.94395 7C8.42838 7 7.93393 7.20481 7.56937 7.56937C7.20481 7.93393 7 8.42838 7 8.94395C7 9.45952 7.20481 9.95397 7.56937 10.3185L15.2508 18L7.56937 25.6815C7.20481 26.046 7 26.5405 7 27.0561C7 27.5716 7.20481 28.0661 7.56937 28.4306C7.93393 28.7952 8.42838 29 8.94395 29C9.45952 29 9.95397 28.7952 10.3185 28.4306L18 20.7492L25.6815 28.4306C26.046 28.7952 26.5405 29 27.0561 29C27.5716 29 28.0661 28.7952 28.4306 28.4306C28.7952 28.0661 29 27.5716 29 27.0561C29 26.5405 28.7952 26.046 28.4306 25.6815L20.7443 18Z" fill="#57AEFF"/>
</svg>
