<svg width="38" height="38" viewBox="0 0 38 38" fill="none" xmlns="http://www.w3.org/2000/svg">
<path fill-rule="evenodd" clip-rule="evenodd" d="M21.625 8.1484C21.1656 7.92482 20.1797 7.70318 18.9204 7.71851C17.5857 7.73687 16.2672 8.03235 15.2095 8.90412M21.625 8.1484C22.812 8.72996 24.5417 9.87334 24.5417 12.1718C24.5417 14.6994 23.0785 15.8338 20.5575 17.5675C19.19 18.5078 18.2286 19.51 17.6225 20.6367C17.0111 21.7733 16.823 22.9223 16.823 24.0468C16.823 24.8666 17.4875 25.5311 18.3073 25.5311C19.1271 25.5311 19.7917 24.8666 19.7917 24.0468C19.7917 23.2682 19.9183 22.6356 20.237 22.0431C20.5611 21.4407 21.1452 20.7663 22.2396 20.0137L22.2967 19.9745C24.6874 18.3307 27.5105 16.3897 27.5105 12.1718C27.5105 8.02889 24.2822 6.14414 22.9295 5.48158L22.9282 5.48099L22.927 5.48039C21.9003 4.97983 20.4023 4.73134 18.8829 4.75L18.8818 4.75001L18.8808 4.75003C17.1714 4.77336 15.0925 5.15334 13.3213 6.61328L13.3212 6.61332C11.8959 7.78822 11.1377 9.12243 10.739 10.1764C10.5404 10.7014 10.4305 11.1575 10.3695 11.4933C10.339 11.6616 10.3205 11.8008 10.3094 11.9048C10.3038 11.9568 10.3001 12.0002 10.2976 12.0341C10.2963 12.0511 10.2953 12.0657 10.2946 12.0779C10.2943 12.084 10.294 12.0895 10.2937 12.0943L10.2934 12.1012L10.2933 12.1042L10.2932 12.1057C10.2932 12.1064 10.2931 12.1071 11.7761 12.1718L10.2931 12.1071C10.2574 12.9261 10.8924 13.619 11.7114 13.6547C12.5252 13.6902 13.2144 13.0636 13.2583 12.2522C13.2586 12.2479 13.2595 12.2373 13.2613 12.2206C13.2653 12.183 13.2738 12.1155 13.2905 12.0235C13.3241 11.8387 13.3897 11.5598 13.5157 11.2269C13.766 10.5654 14.2524 9.69307 15.2095 8.90415" fill="white"/>
<path d="M19 32.0618C20.3117 32.0618 21.375 30.9984 21.375 29.6868C21.375 28.3751 20.3117 27.3118 19 27.3118C17.6883 27.3118 16.625 28.3751 16.625 29.6868C16.625 30.9984 17.6883 32.0618 19 32.0618Z" fill="white"/>
</svg>
