<svg width="32" height="32" viewBox="0 0 32 32" fill="none" xmlns="http://www.w3.org/2000/svg">
<path fill-rule="evenodd" clip-rule="evenodd" d="M4.5769 9.81253C4.5769 9.02393 5.21619 8.38464 6.00479 8.38464H25.9952C26.7838 8.38464 27.4231 9.02393 27.4231 9.81253C27.4231 10.6011 26.7838 11.2404 25.9952 11.2404H6.00479C5.21619 11.2404 4.5769 10.6011 4.5769 9.81253ZM4.5769 16C4.5769 15.2114 5.21619 14.5721 6.00479 14.5721H25.9952C26.7838 14.5721 27.4231 15.2114 27.4231 16C27.4231 16.7886 26.7838 17.4279 25.9952 17.4279H6.00479C5.21619 17.4279 4.5769 16.7886 4.5769 16ZM4.5769 22.1875C4.5769 21.3989 5.21619 20.7596 6.00479 20.7596H25.9952C26.7838 20.7596 27.4231 21.3989 27.4231 22.1875C27.4231 22.9761 26.7838 23.6154 25.9952 23.6154H6.00479C5.21619 23.6154 4.5769 22.9761 4.5769 22.1875Z" fill="#57AEFF"/>
</svg>
