<svg width="56" height="56" viewBox="0 0 56 56" fill="none" xmlns="http://www.w3.org/2000/svg">
<path d="M46.375 8.75H9.625C8.00108 8.75174 6.44417 9.39761 5.29589 10.5459C4.14761 11.6942 3.50174 13.2511 3.5 14.875V41.125C3.50174 42.7489 4.14761 44.3058 5.29589 45.4541C6.44417 46.6024 8.00108 47.2483 9.625 47.25H46.375C47.9989 47.2483 49.5558 46.6024 50.7041 45.4541C51.8524 44.3058 52.4983 42.7489 52.5 41.125V14.875C52.4983 13.2511 51.8524 11.6942 50.7041 10.5459C49.5558 9.39761 47.9989 8.75174 46.375 8.75ZM44.8241 18.8814L29.0741 31.1314C28.7669 31.3702 28.389 31.4998 28 31.4998C27.611 31.4998 27.2331 31.3702 26.9259 31.1314L11.1759 18.8814C10.9909 18.7417 10.8355 18.5665 10.7187 18.3662C10.6019 18.1659 10.5261 17.9443 10.4957 17.7144C10.4653 17.4846 10.4808 17.2509 10.5415 17.0271C10.6021 16.8033 10.7067 16.5938 10.849 16.4107C10.9913 16.2277 11.1686 16.0747 11.3706 15.9608C11.5726 15.8468 11.7951 15.7741 12.0254 15.7469C12.2557 15.7198 12.4891 15.7386 12.7121 15.8024C12.935 15.8662 13.143 15.9737 13.3241 16.1186L28 27.533L42.6759 16.1186C43.0429 15.8415 43.5042 15.7199 43.9601 15.7802C44.416 15.8406 44.8298 16.0779 45.1121 16.4409C45.3944 16.804 45.5224 17.2635 45.4685 17.7202C45.4146 18.1769 45.1831 18.5941 44.8241 18.8814Z" fill="white"/>
</svg>
