<svg width="56" height="56" viewBox="0 0 56 56" fill="none" xmlns="http://www.w3.org/2000/svg">
<path d="M13.0907 40.4344C12.4073 41.1179 12.4073 42.2259 13.0907 42.9093C13.7741 43.5927 14.8821 43.5927 15.5656 42.9093L28 30.4749L40.4344 42.9093C41.1179 43.5927 42.2259 43.5927 42.9093 42.9093C43.5927 42.2259 43.5927 41.1179 42.9093 40.4344L30.4749 28L42.9093 15.5656C43.5927 14.8821 43.5927 13.7741 42.9093 13.0907C42.2259 12.4073 41.1179 12.4073 40.4344 13.0907L28 25.5251L15.5656 13.0907C14.8821 12.4073 13.7741 12.4073 13.0907 13.0907C12.4073 13.7741 12.4073 14.8821 13.0907 15.5656L25.5251 28L13.0907 40.4344Z" fill="white"/>
</svg>
