<svg width="56" height="56" viewBox="0 0 56 56" fill="none" xmlns="http://www.w3.org/2000/svg">
<path d="M49 48.125C48.7341 48.125 48.4717 48.0645 48.2327 47.9479C47.9937 47.8314 47.7845 47.6619 47.6208 47.4524C45.1205 44.251 42.8006 41.7802 39.6014 40.1242C36.6406 38.5963 32.9219 37.7989 28 37.6502V46.375C27.9989 46.7166 27.898 47.0504 27.7095 47.3353C27.521 47.6202 27.2533 47.8437 26.9393 47.9782C26.6253 48.1128 26.2788 48.1525 25.9425 48.0925C25.6063 48.0325 25.2949 47.8753 25.0469 47.6405L5.79686 29.2655C5.62579 29.1021 5.48963 28.9057 5.39661 28.6882C5.30358 28.4707 5.25562 28.2366 5.25562 28C5.25562 27.7635 5.30358 27.5294 5.39661 27.3118C5.48963 27.0943 5.62579 26.898 5.79686 26.7346L25.0469 8.35956C25.2949 8.12471 25.6063 7.9676 25.9425 7.90759C26.2788 7.84758 26.6253 7.88729 26.9393 8.02184C27.2533 8.15638 27.521 8.37987 27.7095 8.66475C27.898 8.94963 27.9989 9.28344 28 9.62503V18.4144C36.109 18.7874 42.1509 21.7952 45.9758 27.3689C49.1444 31.9856 50.75 38.3797 50.75 46.375C50.75 46.8392 50.5656 47.2843 50.2374 47.6125C49.9092 47.9407 49.4641 48.125 49 48.125Z" fill="white"/>
</svg>
