<svg width="56" height="56" viewBox="0 0 56 56" fill="none" xmlns="http://www.w3.org/2000/svg">
<path d="M31.0666 27.9999C36.1257 27.9999 40.5953 23.3396 41.0333 17.6105C41.2508 14.7324 40.3279 12.0484 38.4343 10.0544C36.5607 8.08468 33.9416 7 31.0666 7C28.1686 7 25.5476 8.07812 23.6875 10.0356C21.8063 12.0147 20.8891 14.7043 21.1 17.6087C21.5303 23.3386 25.999 27.9999 31.0666 27.9999ZM50.9405 45.2272C50.1317 40.8379 47.6065 37.1507 43.639 34.5632C40.1152 32.2654 35.6503 30.9998 31.0666 30.9998C26.4829 30.9998 22.0181 32.2654 18.4943 34.5623C14.5268 37.1498 12.0016 40.837 11.1927 45.2263C11.0078 46.2322 11.2589 47.2269 11.8818 47.9553C12.1643 48.2873 12.5191 48.5533 12.9201 48.734C13.3212 48.9147 13.7585 49.0055 14.2 48.9997H47.9333C48.375 49.0059 48.8126 48.9154 49.214 48.7348C49.6155 48.5543 49.9706 48.2883 50.2534 47.9563C50.8744 47.2278 51.1255 46.2332 50.9405 45.2272ZM13.4333 30.9998V27.2499H17.2666C17.6733 27.2499 18.0633 27.0918 18.3509 26.8105C18.6384 26.5292 18.8 26.1477 18.8 25.7499C18.8 25.352 18.6384 24.9705 18.3509 24.6892C18.0633 24.4079 17.6733 24.2499 17.2666 24.2499H13.4333V20.4999C13.4333 20.1021 13.2718 19.7206 12.9842 19.4393C12.6967 19.158 12.3067 18.9999 11.9 18.9999C11.4933 18.9999 11.1033 19.158 10.8158 19.4393C10.5282 19.7206 10.3667 20.1021 10.3667 20.4999V24.2499H6.53333C6.12667 24.2499 5.73666 24.4079 5.4491 24.6892C5.16155 24.9705 5 25.352 5 25.7499C5 26.1477 5.16155 26.5292 5.4491 26.8105C5.73666 27.0918 6.12667 27.2499 6.53333 27.2499H10.3667V30.9998C10.3667 31.3977 10.5282 31.7792 10.8158 32.0605C11.1033 32.3418 11.4933 32.4998 11.9 32.4998C12.3067 32.4998 12.6967 32.3418 12.9842 32.0605C13.2718 31.7792 13.4333 31.3977 13.4333 30.9998Z" fill="white"/>
</svg>
