<?xml version="1.0" standalone="no"?>
<!DOCTYPE svg PUBLIC "-//W3C//DTD SVG 20010904//EN"
 "http://www.w3.org/TR/2001/REC-SVG-20010904/DTD/svg10.dtd">
<svg version="1.0" xmlns="http://www.w3.org/2000/svg"
 width="700.000000pt" height="700.000000pt" viewBox="0 0 700.000000 700.000000"
 preserveAspectRatio="xMidYMid meet">
<metadata>
Created by potrace 1.14, written by Peter Selinger 2001-2017
</metadata>
<g transform="translate(0.000000,700.000000) scale(0.100000,-0.100000)"
fill="#000000" stroke="none">
<path d="M1807 5254 c-1 -1 -58 -4 -127 -8 -134 -6 -151 -8 -275 -31 -330 -62
-585 -184 -776 -375 -159 -158 -244 -321 -282 -540 -14 -81 -15 -258 -2 -350
11 -80 65 -223 112 -298 42 -67 193 -232 213 -232 5 0 15 -6 22 -12 49 -45
247 -139 395 -188 162 -52 487 -132 723 -176 128 -24 281 -86 319 -129 27 -31
38 -66 36 -108 -8 -116 -140 -169 -424 -169 -342 -1 -720 97 -1037 268 l-62
33 -26 -55 c-14 -30 -26 -56 -26 -59 0 -2 -13 -32 -29 -67 -38 -81 -260 -586
-272 -615 -8 -21 1 -27 114 -82 200 -98 516 -196 732 -226 22 -4 47 -8 55 -10
8 -2 42 -7 75 -11 33 -3 69 -8 80 -10 123 -24 610 -23 749 1 11 2 53 9 91 15
399 62 736 261 919 540 35 52 74 122 89 155 27 64 62 191 72 265 7 52 7 225 1
257 -3 11 -8 43 -12 70 -27 187 -164 393 -342 514 -79 54 -262 144 -362 178
-140 48 -244 74 -552 136 -386 77 -487 112 -535 184 -43 64 -20 163 49 208 78
51 151 66 333 69 94 1 190 -1 215 -6 25 -5 65 -11 90 -15 133 -19 376 -97 549
-176 46 -22 87 -39 91 -39 4 0 13 15 20 33 7 17 18 46 25 62 14 31 284 681
292 702 13 33 -387 188 -587 227 -182 36 -292 52 -427 62 -86 6 -301 12 -306
8z"/>
<path d="M3838 5178 c0 -2 -2 -749 -3 -1660 l-1 -1658 237 0 238 0 0 728 c0
400 0 733 1 740 0 10 194 12 952 10 l952 -3 0 -737 0 -738 238 0 237 0 0 1660
1 1660 -238 0 -238 0 0 -693 c1 -380 -1 -702 -3 -714 l-3 -23 -949 0 -949 0 0
63 c-1 34 -1 356 -1 715 l-1 652 -234 0 c-129 0 -235 -1 -236 -2z"/>
</g>
</svg>
