<svg width="650" height="715" viewBox="0 0 650 715" fill="none" xmlns="http://www.w3.org/2000/svg">
<g clip-path="url(#clip0_4_794)">
<path d="M357.604 435.156C357.091 435.156 356.6 434.952 356.237 434.589C355.875 434.226 355.671 433.733 355.671 433.22V318.958C355.671 318.444 355.875 317.952 356.237 317.589C356.6 317.225 357.091 317.021 357.604 317.021C358.117 317.021 358.608 317.225 358.971 317.589C359.333 317.952 359.537 318.444 359.537 318.958V433.22C359.537 433.733 359.333 434.226 358.971 434.589C358.608 434.952 358.117 435.156 357.604 435.156Z" fill="#80ABFF"/>
<path d="M451.354 145.058C406.296 137.854 354.985 134.009 301.547 134.009C252.642 134.009 205.526 137.224 163.357 143.286C163.367 142.637 163.377 141.988 163.406 141.34C164.523 103.681 180.3 67.9549 207.362 41.7964C234.424 15.6379 270.626 1.12248 308.229 1.35264C345.833 1.5828 381.855 16.5403 408.596 43.0281C435.337 69.5159 450.676 105.433 451.335 143.102C451.345 143.76 451.354 144.409 451.354 145.058Z" fill="#007CEE"/>
<g opacity="0.1">
<path d="M326.242 1.2988C306.242 -1.4077 285.897 0.126263 266.527 5.80128C247.157 11.4763 229.193 21.1657 213.8 34.2416C198.406 47.3174 185.927 63.4879 177.171 81.705C168.414 99.9221 163.576 119.779 162.97 139.99C162.941 140.638 162.931 141.287 162.922 141.936C175.45 140.135 188.423 138.592 201.741 137.303C203.37 103.634 216.713 71.5981 239.455 46.7551C262.196 21.9122 292.901 5.82986 326.242 1.2988Z" fill="white"/>
</g>
<path d="M514.351 156.503C493.61 150.87 472.572 146.396 451.335 143.102C416.527 137.698 381.436 134.319 346.238 132.983C331.576 132.383 316.644 132.073 301.547 132.073C289.582 132.073 277.713 132.266 266.009 132.654C231.675 133.67 197.423 136.57 163.406 141.34C138.224 144.813 113.287 149.878 88.7436 156.503C31.5173 172.355 0 193.6 0 216.316C0 239.033 31.5174 260.278 88.7436 276.129C128.989 287.284 178.609 294.886 232.675 298.372C254.991 299.824 278.062 300.56 301.547 300.56C325.11 300.56 348.258 299.814 370.642 298.362C419.846 295.176 465.369 288.582 503.468 278.996C503.671 278.938 503.864 278.889 504.067 278.841C506.638 278.202 509.17 277.533 511.674 276.865C512.572 276.614 513.461 276.371 514.351 276.129C514.401 276.109 514.452 276.093 514.505 276.081C515.356 275.849 516.196 275.607 517.037 275.374C518.719 274.89 520.382 274.415 522.015 273.922C522.092 273.902 522.16 273.883 522.228 273.864C523.648 273.437 525.04 273.011 526.422 272.585C527.553 272.227 528.674 271.878 529.786 271.52C530.598 271.259 531.4 270.997 532.192 270.736C532.772 270.542 533.342 270.358 533.903 270.165C534.667 269.913 535.43 269.651 536.184 269.39C536.503 269.283 536.822 269.177 537.131 269.061C537.856 268.819 538.561 268.567 539.267 268.315C540.03 268.044 540.794 267.763 541.548 267.492C542.176 267.269 542.804 267.037 543.423 266.804C543.945 266.601 544.457 266.407 544.979 266.214C546.4 265.681 547.792 265.129 549.164 264.587C549.85 264.306 550.536 264.035 551.213 263.754C551.88 263.483 552.556 263.202 553.214 262.922C554.296 262.466 555.359 262.011 556.403 261.556C556.905 261.324 557.418 261.101 557.911 260.888C558.288 260.714 558.655 260.549 559.032 260.375C559.302 260.259 559.573 260.133 559.834 260.007C560.81 259.562 561.777 259.106 562.724 258.651C566.358 256.908 569.75 255.127 572.901 253.306C592.666 241.967 603.094 229.389 603.094 216.316C603.094 193.6 571.577 172.355 514.351 156.503ZM513.829 274.27C473.536 285.435 423.78 293.036 369.569 296.493C347.523 297.897 324.734 298.623 301.547 298.623C278.438 298.623 255.725 297.907 233.748 296.503C179.45 293.056 129.617 285.454 89.2656 274.27C32.9478 258.661 1.93299 238.084 1.93299 216.316C1.93614 214.393 2.17644 212.477 2.64843 210.613C7.57719 190.976 37.8963 172.597 89.2656 158.363C113.624 151.789 138.37 146.754 163.357 143.286C197.579 138.489 232.039 135.58 266.579 134.571C278.1 134.193 289.756 134.006 301.547 134.009C316.441 134.009 331.17 134.31 345.648 134.891C381.051 136.215 416.347 139.61 451.354 145.058C472.408 148.337 493.264 152.779 513.829 158.363C565.189 172.597 595.498 190.966 600.437 210.594C600.916 212.463 601.16 214.386 601.161 216.316C601.161 238.084 570.147 258.661 513.829 274.27Z" fill="#00407A"/>
<path d="M602.544 217.198C602.544 230.134 591.902 242.374 572.901 253.306C569.741 255.127 566.339 256.908 562.724 258.651C561.777 259.106 560.81 259.561 559.834 260.007C559.573 260.133 559.302 260.259 559.032 260.375C558.655 260.549 558.288 260.714 557.911 260.888C557.418 261.101 556.906 261.324 556.403 261.556C555.359 262.011 554.296 262.466 553.214 262.921C552.556 263.202 551.88 263.483 551.213 263.754C550.536 264.035 549.85 264.306 549.164 264.587C547.792 265.129 546.4 265.681 544.979 266.214C544.457 266.407 543.945 266.601 543.423 266.804C542.805 267.037 542.176 267.269 541.548 267.492C540.794 267.763 540.031 268.044 539.267 268.315C538.561 268.567 537.856 268.818 537.131 269.061C536.822 269.177 536.503 269.283 536.184 269.39C535.43 269.651 534.667 269.913 533.903 270.164C533.342 270.358 532.772 270.542 532.192 270.736C531.4 270.997 530.597 271.259 529.786 271.52C528.674 271.878 527.553 272.227 526.422 272.585C525.04 273.011 523.648 273.437 522.228 273.863C522.16 273.883 522.092 273.902 522.015 273.922C520.382 274.415 518.719 274.89 517.038 275.374C516.197 275.606 515.356 275.848 514.505 276.081C514.452 276.093 514.401 276.109 514.351 276.129C513.461 276.371 512.572 276.613 511.674 276.865C509.18 277.524 506.638 278.192 504.067 278.841C503.864 278.889 503.671 278.937 503.468 278.996C466.403 288.272 420.929 295.031 370.604 298.294C348.558 299.718 325.574 300.473 301.963 300.473C278.139 300.473 254.962 299.708 232.742 298.255C100.1 289.589 1.38232 256.589 1.38232 217.197C1.39277 214.801 1.75743 212.419 2.46444 210.129C2.52249 210.293 2.58053 210.448 2.64849 210.613C16.44 246.905 114.318 276.236 241.315 283.392C260.771 284.496 280.922 285.067 301.547 285.067C322.26 285.067 342.488 284.486 362.021 283.382C488.912 276.197 586.693 246.857 600.437 210.594C600.669 210.013 600.872 209.432 601.045 208.851C602.025 211.524 602.532 214.349 602.544 217.198Z" fill="#00407A"/>
<path d="M88.5982 206.775C72.5131 206.775 55.4177 203.307 55.4177 196.881C55.4177 190.455 72.5131 186.988 88.5982 186.988C104.683 186.988 121.779 190.455 121.779 196.881C121.779 203.307 104.683 206.775 88.5982 206.775ZM88.5982 188.925C70.1836 188.925 57.3507 193.118 57.3507 196.881C57.3507 200.645 70.1836 204.838 88.5982 204.838C107.013 204.838 119.846 200.645 119.846 196.881C119.846 193.118 107.013 188.925 88.5982 188.925Z" fill="#00407A"/>
<path d="M157.219 252.285C141.134 252.285 124.039 248.818 124.039 242.392C124.039 235.966 141.134 232.499 157.219 232.499C173.305 232.499 190.4 235.966 190.4 242.392C190.4 248.818 173.305 252.285 157.219 252.285ZM157.219 234.436C138.805 234.436 125.972 238.629 125.972 242.392C125.972 246.155 138.805 250.349 157.219 250.349C175.634 250.349 188.467 246.155 188.467 242.392C188.467 238.629 175.634 234.436 157.219 234.436Z" fill="#00407A"/>
<path d="M513.857 206.775C497.772 206.775 480.677 203.307 480.677 196.881C480.677 190.455 497.772 186.988 513.857 186.988C529.942 186.988 547.038 190.455 547.038 196.881C547.038 203.307 529.942 206.775 513.857 206.775ZM513.857 188.925C495.442 188.925 482.61 193.118 482.61 196.881C482.61 200.645 495.442 204.838 513.857 204.838C532.272 204.838 545.105 200.645 545.105 196.881C545.105 193.118 532.272 188.925 513.857 188.925Z" fill="#00407A"/>
<path d="M445.236 252.285C429.151 252.285 412.055 248.818 412.055 242.392C412.055 235.966 429.151 232.499 445.236 232.499C461.321 232.499 478.416 235.966 478.416 242.392C478.416 248.818 461.321 252.285 445.236 252.285ZM445.236 234.436C426.821 234.436 413.988 238.629 413.988 242.392C413.988 246.155 426.821 250.349 445.236 250.349C463.65 250.349 476.483 246.155 476.483 242.392C476.483 238.629 463.65 234.436 445.236 234.436Z" fill="#00407A"/>
<path d="M301.228 273.588C285.143 273.588 268.047 270.121 268.047 263.695C268.047 257.269 285.143 253.802 301.228 253.802C317.313 253.802 334.408 257.269 334.408 263.695C334.408 270.121 317.313 273.588 301.228 273.588ZM301.228 255.739C282.813 255.739 269.98 259.932 269.98 263.695C269.98 267.458 282.813 271.652 301.228 271.652C319.642 271.652 332.475 267.458 332.475 263.695C332.475 259.932 319.642 255.739 301.228 255.739Z" fill="#00407A"/>
<path d="M325.688 477.106C348.114 477.106 366.293 458.893 366.293 436.425C366.293 413.957 348.114 395.744 325.688 395.744C303.263 395.744 285.083 413.957 285.083 436.425C285.083 458.893 303.263 477.106 325.688 477.106Z" fill="#454460"/>
<path d="M310.248 463.153L290.486 473.068L296.009 484.119L315.771 474.203L310.248 463.153Z" fill="#454460"/>
<path d="M298.615 482.997C299.787 481.216 296.894 477.235 292.154 474.103C287.415 470.972 282.622 469.878 281.45 471.659C280.278 473.439 283.171 477.421 287.91 480.552C292.65 483.683 297.443 484.778 298.615 482.997Z" fill="#454460"/>
<path d="M341.129 463.153L335.605 474.204L355.367 484.119L360.891 473.068L341.129 463.153Z" fill="#454460"/>
<path d="M363.466 480.552C368.206 477.421 371.098 473.439 369.926 471.659C368.754 469.878 363.962 470.972 359.222 474.103C354.482 477.234 351.59 481.216 352.762 482.997C353.934 484.778 358.726 483.683 363.466 480.552Z" fill="#454460"/>
<path d="M322.846 440.378C330.51 440.378 336.723 434.153 336.723 426.474C336.723 418.795 330.51 412.57 322.846 412.57C315.181 412.57 308.968 418.795 308.968 426.474C308.968 434.153 315.181 440.378 322.846 440.378Z" fill="white"/>
<path d="M326.221 423.809C328.02 422.006 328.01 419.074 326.198 417.259C324.386 415.443 321.459 415.433 319.66 417.235C317.861 419.038 317.872 421.97 319.683 423.785C321.495 425.601 324.422 425.611 326.221 423.809Z" fill="#00407A"/>
<path d="M357.72 392.168C358.33 377.107 345.375 364.351 328.782 363.675C312.19 363 298.244 374.662 297.633 389.723C297.022 404.784 308.556 408.205 325.149 408.881C341.741 409.556 357.109 407.229 357.72 392.168Z" fill="#007CEE"/>
<path d="M381.125 457.727C383.796 455.43 380.041 446.658 372.737 438.134C365.433 429.61 357.347 424.563 354.677 426.86C352.006 429.157 355.761 437.929 363.065 446.453C370.369 454.977 378.455 460.024 381.125 457.727Z" fill="#454460"/>
<path d="M288.425 446.453C295.729 437.929 299.484 429.157 296.813 426.86C294.143 424.563 286.057 429.61 278.753 438.134C271.449 446.658 267.694 455.43 270.365 457.727C273.035 460.024 281.121 454.977 288.425 446.453Z" fill="#454460"/>
<path d="M336.84 452.457C337.28 454.875 336.742 457.37 335.346 459.391C333.95 461.413 331.809 462.796 329.395 463.236C326.981 463.677 324.491 463.138 322.474 461.739C320.456 460.34 319.076 458.196 318.636 455.777L318.633 455.759C317.723 450.722 321.61 448.939 326.638 448.027C331.666 447.115 335.93 447.42 336.84 452.457Z" fill="white"/>
<path d="M257.088 479.699C256.576 479.699 256.084 479.495 255.721 479.132C255.359 478.768 255.155 478.276 255.155 477.762V363.501C255.155 362.987 255.359 362.494 255.721 362.131C256.084 361.768 256.576 361.564 257.088 361.564C257.601 361.564 258.093 361.768 258.455 362.131C258.818 362.494 259.021 362.987 259.021 363.501V477.762C259.021 478.276 258.818 478.768 258.455 479.132C258.093 479.495 257.601 479.699 257.088 479.699Z" fill="#80ABFF"/>
<path d="M228.093 582.34C227.581 582.34 227.089 582.136 226.727 581.773C226.364 581.41 226.16 580.917 226.16 580.404V497.129C226.16 496.615 226.364 496.122 226.727 495.759C227.089 495.396 227.581 495.192 228.093 495.192C228.606 495.192 229.098 495.396 229.46 495.759C229.823 496.122 230.026 496.615 230.026 497.129V580.404C230.026 580.917 229.823 581.41 229.46 581.773C229.098 582.136 228.606 582.34 228.093 582.34Z" fill="#80ABFF"/>
<path d="M302.514 513.59C302.001 513.59 301.51 513.386 301.147 513.023C300.784 512.659 300.581 512.167 300.581 511.653V397.392C300.581 396.878 300.784 396.386 301.147 396.022C301.509 395.659 302.001 395.455 302.514 395.455C303.026 395.455 303.518 395.659 303.881 396.022C304.243 396.386 304.447 396.878 304.447 397.392V511.653C304.447 512.167 304.243 512.659 303.881 513.023C303.518 513.386 303.026 513.59 302.514 513.59Z" fill="#80ABFF"/>
<path d="M274.485 595.897C273.973 595.897 273.481 595.693 273.118 595.33C272.756 594.966 272.552 594.474 272.552 593.96V547.481C272.552 546.967 272.756 546.475 273.118 546.112C273.481 545.748 273.973 545.544 274.485 545.544C274.998 545.544 275.49 545.748 275.852 546.112C276.215 546.475 276.418 546.967 276.418 547.481V593.96C276.418 594.474 276.215 594.966 275.852 595.33C275.49 595.693 274.998 595.897 274.485 595.897Z" fill="#80ABFF"/>
<path d="M314.112 357.691C313.599 357.691 313.107 357.487 312.745 357.124C312.382 356.76 312.179 356.268 312.179 355.754V309.275C312.179 308.761 312.382 308.269 312.745 307.905C313.107 307.542 313.599 307.338 314.112 307.338C314.624 307.338 315.116 307.542 315.479 307.905C315.841 308.269 316.045 308.761 316.045 309.275V355.754C316.045 356.268 315.841 356.76 315.479 357.124C315.116 357.487 314.624 357.691 314.112 357.691Z" fill="#80ABFF"/>
<path d="M217.462 378.025C216.949 378.025 216.458 377.821 216.095 377.458C215.733 377.095 215.529 376.602 215.529 376.089V329.61C215.529 329.096 215.733 328.603 216.095 328.24C216.458 327.877 216.949 327.673 217.462 327.673C217.975 327.673 218.466 327.877 218.829 328.24C219.191 328.603 219.395 329.096 219.395 329.61V376.089C219.395 376.602 219.191 377.095 218.829 377.458C218.466 377.821 217.975 378.025 217.462 378.025Z" fill="#80ABFF"/>
<path d="M395.297 382.867C394.785 382.867 394.293 382.663 393.931 382.3C393.568 381.937 393.365 381.444 393.365 380.93V334.451C393.365 333.938 393.568 333.445 393.931 333.082C394.293 332.719 394.785 332.515 395.297 332.515C395.81 332.515 396.302 332.719 396.664 333.082C397.027 333.445 397.23 333.938 397.23 334.451V380.93C397.23 381.444 397.027 381.937 396.664 382.3C396.302 382.663 395.81 382.867 395.297 382.867Z" fill="#80ABFF"/>
<path d="M381.766 528.115C381.254 528.115 380.762 527.911 380.4 527.547C380.037 527.184 379.834 526.692 379.833 526.178V470.016C379.833 469.502 380.037 469.009 380.4 468.646C380.762 468.283 381.254 468.079 381.766 468.079C382.279 468.079 382.771 468.283 383.133 468.646C383.496 469.009 383.699 469.502 383.699 470.016V526.178C383.699 526.692 383.496 527.184 383.133 527.547C382.771 527.911 382.279 528.115 381.766 528.115Z" fill="#80ABFF"/>
<path d="M343.107 577.499C342.594 577.499 342.102 577.295 341.74 576.932C341.377 576.568 341.174 576.076 341.174 575.562V492.287C341.174 491.773 341.377 491.281 341.74 490.918C342.102 490.554 342.594 490.35 343.107 490.35C343.619 490.35 344.111 490.554 344.473 490.918C344.836 491.281 345.04 491.773 345.04 492.287V575.562C345.04 576.076 344.836 576.568 344.473 576.932C344.111 577.295 343.619 577.499 343.107 577.499Z" fill="#80ABFF"/>
<path d="M587.817 678.298C590.584 675.977 586.845 666.938 579.466 658.108C572.087 649.278 563.863 644.002 561.096 646.323C558.329 648.644 562.068 657.683 569.447 666.513C576.826 675.342 585.051 680.619 587.817 678.298Z" fill="#454460"/>
<path d="M569.672 668.257C576.942 646.407 565.156 622.79 543.347 615.506C521.538 608.223 497.965 620.032 490.696 641.882C483.426 663.732 495.212 687.349 517.021 694.632C538.83 701.915 562.403 690.107 569.672 668.257Z" fill="#454460"/>
<path d="M547.802 687.798H535.157V710.497H547.802V687.798Z" fill="#454460"/>
<path d="M522.511 687.798H509.866V710.497H522.511V687.798Z" fill="#454460"/>
<path d="M537.264 714.72C543.084 714.72 547.802 712.948 547.802 710.761C547.802 708.574 543.084 706.802 537.264 706.802C531.444 706.802 526.726 708.574 526.726 710.761C526.726 712.948 531.444 714.72 537.264 714.72Z" fill="#454460"/>
<path d="M511.973 714.192C517.793 714.192 522.511 712.42 522.511 710.233C522.511 708.046 517.793 706.274 511.973 706.274C506.154 706.274 501.436 708.046 501.436 710.233C501.436 712.42 506.154 714.192 511.973 714.192Z" fill="#454460"/>
<path d="M517.114 602.648C520.831 587.651 537.237 578.826 553.759 582.936C570.28 587.046 580.66 602.535 576.944 617.532C573.227 632.528 560.896 632.576 544.374 628.466C527.853 624.356 513.397 617.644 517.114 602.648Z" fill="#57AEFF"/>
<path d="M502.106 644.654C503.652 641.388 496.486 634.739 486.101 629.805C475.715 624.87 466.043 623.517 464.497 626.783C462.95 630.05 470.116 636.698 480.501 641.633C490.887 646.568 500.559 647.921 502.106 644.654Z" fill="#454460"/>
<path d="M523.961 660.173C531.625 660.173 537.839 653.948 537.839 646.27C537.839 638.591 531.625 632.366 523.961 632.366C516.297 632.366 510.083 638.591 510.083 646.27C510.083 653.948 516.297 660.173 523.961 660.173Z" fill="white"/>
<path d="M518.257 645.921C520.812 645.921 522.883 643.846 522.883 641.286C522.883 638.726 520.812 636.651 518.257 636.651C515.703 636.651 513.632 638.726 513.632 641.286C513.632 643.846 515.703 645.921 518.257 645.921Z" fill="#00407A"/>
<path d="M523.842 681.109C527.044 681.109 529.641 678.508 529.641 675.299C529.641 672.09 527.044 669.489 523.842 669.489C520.639 669.489 518.043 672.09 518.043 675.299C518.043 678.508 520.639 681.109 523.842 681.109Z" fill="white"/>
<path d="M649.034 715H420.94C420.684 715 420.438 714.898 420.257 714.716C420.075 714.535 419.974 714.288 419.974 714.032C419.974 713.775 420.075 713.529 420.257 713.347C420.438 713.165 420.684 713.063 420.94 713.063H649.034C649.29 713.063 649.536 713.165 649.717 713.347C649.898 713.529 650 713.775 650 714.032C650 714.288 649.898 714.535 649.717 714.716C649.536 714.898 649.29 715 649.034 715Z" fill="#00407A"/>
</g>
<defs>
<clipPath id="clip0_4_794">
<rect width="650" height="715" fill="white"/>
</clipPath>
</defs>
</svg>
